<svg width="70" height="70" viewBox="0 0 70 70" fill="none" xmlns="http://www.w3.org/2000/svg">
<path d="M33.6 12.25L12.25 17.43H37.38L62.44 17.5L62.02 15.68C61.74 14.63 61.32 12.95 61.11 11.83C60.69 9.59 57.89 6.93 56.07 7.07C55.44 7.07 45.36 9.45 33.6 12.25Z" fill="#ED4690"/>
<path d="M6.23001 21.8356C4.90001 22.9556 4.55001 23.9356 4.34001 28.1356C3.99001 33.6656 4.69001 35.2056 7.49001 35.2056C8.47001 35.2056 10.15 36.1156 11.34 37.3056C13.09 39.1256 13.37 39.8256 13.02 41.6456C12.39 44.6556 10.78 46.2656 7.77001 46.8256C6.37001 47.1056 5.04001 47.6656 4.76001 48.0856C4.48001 48.5056 4.20001 50.8156 4.20001 53.1956C4.20001 56.7656 4.48001 57.8856 5.88001 59.4956L7.56001 61.4556H35H62.44L64.12 59.4956C65.52 57.8856 65.8 56.7656 65.8 53.1956C65.8 50.8156 65.52 48.5056 65.24 48.0856C64.96 47.6656 63.63 47.1056 62.23 46.8256C59.22 46.2656 57.61 44.6556 56.98 41.6456C56.63 39.8256 56.91 39.1256 58.66 37.3056C59.85 36.1156 61.53 35.2056 62.51 35.2056C65.31 35.2056 66.01 33.6656 65.66 28.1356C65.24 20.0156 67.13 20.5056 35 20.5056C9.45001 20.5056 7.77001 20.5756 6.23001 21.8356Z" fill="#242565"/>
</svg>
